<?xml version="1.0" encoding="UTF-8"?>
<svg width="49px" height="38px" viewBox="0 0 49 38" version="1.1" xmlns="http://www.w3.org/2000/svg" xmlns:xlink="http://www.w3.org/1999/xlink">
    <!-- Generator: Sketch 54.1 (76490) - https://sketchapp.com -->
    <title>UiPath_Logo_mini</title>
    <desc>Created with Sketch.</desc>
    <g id="Page-1" stroke="none" stroke-width="1" fill="none" fill-rule="evenodd">
        <path d="M0,0 L38,0 L38,38 L0,38 L0,0 Z M34.048,34.048 L34.048,3.952 L3.952,3.952 L3.952,34.048 L34.048,34.048 L34.048,34.048 Z M7.372,9.804 L7.372,21.28 C7.372,26.524 10.26,29.64 15.124,29.64 C20.14,29.64 23.028,26.524 23.028,21.28 L23.028,9.804 L19.076,9.804 L19.076,21.28 C19.076,24.244 17.784,25.916 15.2,25.916 C12.464,25.916 11.248,24.168 11.248,21.28 L11.248,9.804 L7.372,9.804 Z M28.12,12.16 C29.488,12.16 30.552,11.172 30.552,9.804 C30.552,8.36 29.564,7.372 28.12,7.372 C26.752,7.372 25.688,8.36 25.688,9.804 C25.688,11.172 26.752,12.16 28.12,12.16 Z M26.144,13.984 L26.144,29.412 L30.096,29.412 L30.096,13.984 L26.144,13.984 Z M39.52,0 L39.52,0.608 L40.812,0.608 L40.812,4.56 L41.572,4.56 L41.572,0.608 L42.788,0.608 L42.788,0 L39.52,0 Z M47.728,0 L46.132,3.648 L44.612,0 L43.7,0 L43.7,4.56 L44.384,4.56 L44.384,1.14 L45.904,4.636 L46.436,4.636 L47.88,1.14 L47.88,4.56 L48.64,4.56 L48.64,0 L47.728,0 Z" id="UiPath_Logo_mini" fill="#FA4616" fill-rule="nonzero"></path>
    </g>
</svg>