<svg xmlns="http://www.w3.org/2000/svg" viewBox="0 0 122 88"><defs><style>.cls-1{fill:#23398c;}.cls-2{fill:#231f20;}.cls-3{fill:#fff;}</style></defs><g id="Layer_2" data-name="Layer 2"><g id="Layer_1-2" data-name="Layer 1"><path class="cls-1" d="M8.1,57.87a2.45,2.45,0,0,1,0,1.31,1.53,1.53,0,0,1-1.71,1.18,1.56,1.56,0,0,1-1.75-1.6v-1.7H0v1.36c0,3.92,3.06,5.1,6.34,5.1s5.74-1.08,6.16-4a8.93,8.93,0,0,0,0-2.88c-.74-3.69-7.36-4.78-7.86-6.84a2.42,2.42,0,0,1,0-.93,1.42,1.42,0,0,1,1.59-1.17,1.48,1.48,0,0,1,1.62,1.58v1.09h4.35V49.11c0-3.82-3.41-4.43-5.88-4.43-3.1,0-5.63,1-6.1,3.92A6.09,6.09,0,0,0,.25,51c.75,3.6,7,4.64,7.85,6.91"/><path class="cls-1" d="M64.78,57.84a2.25,2.25,0,0,1,0,1.28,1.49,1.49,0,0,1-1.69,1.17,1.54,1.54,0,0,1-1.73-1.57V57H56.77v1.33c0,3.88,3,5.06,6.28,5.06s5.68-1.07,6.1-4a8.53,8.53,0,0,0,0-2.85c-.72-3.65-7.27-4.74-7.77-6.78a2,2,0,0,1,0-.91,1.41,1.41,0,0,1,1.57-1.17,1.47,1.47,0,0,1,1.6,1.58v1.07h4.3V49.17c0-3.79-3.37-4.39-5.82-4.39-3,0-5.57,1-6,3.87A6.44,6.44,0,0,0,57,51c.75,3.56,6.89,4.58,7.77,6.84"/><polygon class="cls-1" points="100.96 59.4 100.72 45.24 105.03 45.24 105.03 62.64 98.83 62.64 94.42 48.03 94.67 62.64 90.37 62.64 90.37 45.24 96.85 45.24 100.96 59.4"/><polygon class="cls-1" points="22.59 46.55 20.15 62.82 15.44 62.82 18.68 45.24 26.43 45.24 29.64 62.82 24.95 62.82 22.59 46.55"/><polygon class="cls-1" points="48.03 46.55 45.02 62.82 40.59 62.82 37.6 46.55 37.48 62.82 33.12 62.82 33.51 45.24 40.62 45.24 42.82 58.99 45.02 45.24 52.12 45.24 52.5 62.82 48.14 62.82 48.03 46.55"/><path class="cls-1" d="M79.42,60.2a1.59,1.59,0,0,0,1.68-1.27,4.83,4.83,0,0,0,0-.67v-13h4.41v12.6c0,.33,0,1,0,1.16-.3,3.28-2.87,4.34-6.08,4.34S73.64,62.29,73.34,59c0-.17-.06-.83,0-1.16V45.25h4.42v13a3.66,3.66,0,0,0,0,.67,1.57,1.57,0,0,0,1.67,1.27"/><path class="cls-1" d="M115.79,60a1.64,1.64,0,0,0,1.79-1.28,4.73,4.73,0,0,0,0-.67V55.52h-1.8V53H122v4.72c0,.32,0,.56-.06,1.15-.29,3.2-3,4.34-6.13,4.34S110,62,109.67,58.83a11.2,11.2,0,0,1,0-1.15V50.27c0-.31,0-.86.07-1.16.39-3.29,3-4.34,6.12-4.34s5.79,1,6.13,4.34c0,.57,0,1.16,0,1.16v.59h-4.39v-1s0-.42-.06-.68a1.82,1.82,0,0,0-3.47,0A3.63,3.63,0,0,0,114,50v8a3.6,3.6,0,0,0,0,.67A1.64,1.64,0,0,0,115.79,60"/><path class="cls-2" d="M.93,87.68V72.31H6.14c2.22,0,3,.73,3.57,1.58a4,4,0,0,1,.64,2c0,1.91-.68,3.19-2.74,3.64v.11a3.31,3.31,0,0,1,3.28,3.68c0,3.94-3,4.32-4.81,4.32Zm2-8.9h3A2.39,2.39,0,1,0,5.86,74H3ZM3,86H5.86A2.65,2.65,0,0,0,8.8,83.36c0-2.45-1.57-2.87-3.66-2.87H3Z"/><rect class="cls-2" x="14.54" y="72.31" width="2.04" height="15.37"/><path class="cls-2" d="M20.37,82.06V77c0-3.07,1.64-5,5-5s5,2,5,5v5c0,4.26-1.65,5.94-5,5.94s-5-1.68-5-5.94m8,.09V77c0-3.21-2.3-3.32-3-3.32s-2.94.11-2.94,3.32v5.2c0,3.36,1,4.21,2.94,4.21s3-.85,3-4.21"/><polygon class="cls-2" points="33.98 87.68 33.98 72.31 36.02 72.31 36.02 85.98 41.89 85.98 41.89 87.68 33.98 87.68"/><path class="cls-2" d="M43.76,82.06V77c0-3.07,1.64-5,5-5s5,2,5,5v5c0,4.26-1.64,5.94-5,5.94s-5-1.68-5-5.94m8,.09V77c0-3.21-2.31-3.32-3-3.32s-2.95.11-2.95,3.32v5.2c0,3.36,1,4.21,2.95,4.21s3-.85,3-4.21"/><path class="cls-2" d="M65,76.42c0-1.81-.77-2.79-2.83-2.79-.65,0-3,.11-3,3.32v5.2c0,3.36,1,4.21,3,4.21a5.21,5.21,0,0,0,2.86-.68v-4.6h-3v-1.7h5v7.47A10.22,10.22,0,0,1,62.2,88c-3.39,0-5-1.68-5-5.94V77c0-3.07,1.64-5,5-5s5.1,1.22,5,4.43Z"/><rect class="cls-2" x="71.17" y="72.31" width="2.04" height="15.37"/><path class="cls-2" d="M84.12,76.55a3.5,3.5,0,0,0-.47-2.24,2.71,2.71,0,0,0-1.79-.66,2.52,2.52,0,0,0-2.42,1.19C79.37,75,79,75.4,79,78v4.11c0,3.76,1.28,4.21,2.86,4.21.62,0,2.5-.21,2.52-3.21h2.11C86.56,88,83,88,82,88c-2,0-5.06-.13-5.06-6.09V77.57c0-4.34,2-5.58,5.14-5.58s4.39,1.58,4.19,4.56Z"/><path class="cls-2" d="M91,83.1v.45a2.48,2.48,0,0,0,2.68,2.75c1.62,0,2.86-.66,2.86-2.49,0-3.41-7.18-3-7.18-7.65,0-2.72,2-4.17,4.69-4.17,2.93,0,4.57,1.36,4.44,4.49H96.31c0-1.68-.53-2.79-2.46-2.79A2.2,2.2,0,0,0,91.39,76c0,3.39,7.18,2.9,7.18,7.77,0,3.24-2.33,4.28-5,4.28-4.73,0-4.73-3.43-4.68-4.9Z"/><path class="cls-3" d="M8.1,13.19a2.42,2.42,0,0,1,0,1.3,1.52,1.52,0,0,1-1.71,1.18,1.55,1.55,0,0,1-1.75-1.59V12.37H0v1.36c0,3.92,3.06,5.1,6.34,5.1s5.74-1.08,6.16-4a9,9,0,0,0,0-2.89C11.75,8.25,5.13,7.15,4.63,5.1a2.42,2.42,0,0,1,0-.93A1.42,1.42,0,0,1,6.21,3,1.48,1.48,0,0,1,7.83,4.58V5.67h4.35V4.43C12.18.6,8.77,0,6.3,0,3.2,0,.67,1,.2,3.91a6.14,6.14,0,0,0,0,2.37c.75,3.6,7,4.64,7.85,6.91"/><path class="cls-3" d="M64.78,13.15a2.29,2.29,0,0,1,0,1.29,1.5,1.5,0,0,1-1.69,1.17A1.55,1.55,0,0,1,61.4,14V12.35H56.77v1.34c0,3.88,3,5.06,6.28,5.06s5.68-1.08,6.1-4a8.58,8.58,0,0,0,0-2.86c-.72-3.65-7.27-4.74-7.77-6.77a2,2,0,0,1,0-.92,1.4,1.4,0,0,1,1.57-1.16,1.47,1.47,0,0,1,1.6,1.58V5.71h4.3V4.48C68.82.69,65.45.09,63,.09c-3,0-5.57,1-6,3.88a6.39,6.39,0,0,0,0,2.34c.75,3.57,6.89,4.59,7.77,6.84"/><polygon class="cls-3" points="100.96 14.71 100.72 0.56 105.03 0.56 105.03 17.96 98.83 17.96 94.42 3.35 94.67 17.96 90.37 17.96 90.37 0.56 96.85 0.56 100.96 14.71"/><polygon class="cls-3" points="22.59 1.86 20.15 18.14 15.44 18.14 18.68 0.56 26.43 0.56 29.64 18.14 24.95 18.14 22.59 1.86"/><polygon class="cls-3" points="48.03 1.86 45.02 18.14 40.59 18.14 37.6 1.86 37.48 18.14 33.12 18.14 33.51 0.56 40.62 0.56 42.82 14.3 45.02 0.56 52.12 0.56 52.5 18.14 48.14 18.14 48.03 1.86"/><path class="cls-3" d="M79.42,15.52a1.59,1.59,0,0,0,1.68-1.28,4.64,4.64,0,0,0,0-.67V.56h4.41V13.17c0,.33,0,1,0,1.15-.3,3.29-2.87,4.35-6.08,4.35s-5.78-1.06-6.08-4.35c0-.17-.06-.82,0-1.15V.56h4.42v13a3.55,3.55,0,0,0,0,.67,1.56,1.56,0,0,0,1.67,1.28"/><path class="cls-3" d="M115.79,15.33a1.63,1.63,0,0,0,1.79-1.27,4.73,4.73,0,0,0,0-.67V10.84h-1.8V8.27H122V13c0,.32,0,.57-.06,1.16-.29,3.2-3,4.34-6.13,4.34s-5.84-1.14-6.14-4.34a11.37,11.37,0,0,1,0-1.16V5.59c0-.32,0-.86.07-1.16.39-3.29,3-4.35,6.12-4.35s5.79,1,6.13,4.35c0,.56,0,1.16,0,1.16v.58h-4.39v-1s0-.42-.06-.68a1.82,1.82,0,0,0-3.47,0,3.69,3.69,0,0,0-.08.84v8a3.6,3.6,0,0,0,0,.67,1.63,1.63,0,0,0,1.78,1.27"/><path class="cls-3" d="M.93,43V27.63H6.14c2.22,0,3,.72,3.57,1.57a4,4,0,0,1,.64,2.05c0,1.91-.68,3.19-2.74,3.64V35a3.32,3.32,0,0,1,3.28,3.69c0,3.93-3,4.32-4.81,4.32Zm2-8.9h3a2.19,2.19,0,0,0,2.37-2.45,2.19,2.19,0,0,0-2.45-2.32H3Zm0,7.19H5.86A2.65,2.65,0,0,0,8.8,38.68c0-2.45-1.57-2.88-3.66-2.88H3Z"/><rect class="cls-3" x="14.54" y="27.63" width="2.04" height="15.37"/><path class="cls-3" d="M20.37,37.38V32.33c0-3.06,1.64-5,5-5s5,2,5,5v5.05c0,4.25-1.65,5.94-5,5.94s-5-1.69-5-5.94m8,.08V32.27c0-3.22-2.3-3.32-3-3.32s-2.94.1-2.94,3.32v5.19c0,3.36,1,4.22,2.94,4.22s3-.86,3-4.22"/><polygon class="cls-3" points="33.98 43 33.98 27.63 36.02 27.63 36.02 41.29 41.89 41.29 41.89 43 33.98 43"/><path class="cls-3" d="M43.76,37.38V32.33c0-3.06,1.64-5,5-5s5,2,5,5v5.05c0,4.25-1.64,5.94-5,5.94s-5-1.69-5-5.94m8,.08V32.27c0-3.22-2.31-3.32-3-3.32s-2.95.1-2.95,3.32v5.19c0,3.36,1,4.22,2.95,4.22s3-.86,3-4.22"/><path class="cls-3" d="M65,31.74C65,29.93,64.26,29,62.2,29c-.65,0-3,.1-3,3.32v5.19c0,3.36,1,4.22,3,4.22A5.3,5.3,0,0,0,65.06,41V36.4h-3V34.69h5v7.48a10.22,10.22,0,0,1-4.9,1.15c-3.39,0-5-1.69-5-5.94V32.33c0-3.06,1.64-5,5-5s5.1,1.21,5,4.43Z"/><rect class="cls-3" x="71.17" y="27.63" width="2.04" height="15.37"/><path class="cls-3" d="M84.12,31.86a3.47,3.47,0,0,0-.47-2.23A2.71,2.71,0,0,0,81.86,29a2.52,2.52,0,0,0-2.42,1.19c-.07.17-.46.55-.46,3.19v4.11c0,3.77,1.28,4.22,2.86,4.22.62,0,2.5-.22,2.52-3.22h2.11c.09,4.86-3.48,4.86-4.52,4.86-2,0-5.06-.13-5.06-6.09V32.89c0-4.35,2-5.58,5.14-5.58s4.39,1.57,4.19,4.55Z"/><path class="cls-3" d="M91,38.42v.45a2.48,2.48,0,0,0,2.68,2.74c1.62,0,2.86-.66,2.86-2.49,0-3.4-7.18-3-7.18-7.64,0-2.72,2-4.17,4.69-4.17,2.93,0,4.57,1.36,4.44,4.49H96.31c0-1.68-.53-2.79-2.46-2.79a2.2,2.2,0,0,0-2.46,2.26c0,3.38,7.18,2.89,7.18,7.77,0,3.23-2.33,4.27-5,4.27-4.73,0-4.73-3.42-4.68-4.89Z"/></g></g></svg>